<?xml version="1.0" encoding="UTF-8"?><svg id="Layer_2" xmlns="http://www.w3.org/2000/svg" xmlns:xlink="http://www.w3.org/1999/xlink" viewBox="0 0 132.16 132.16"><defs><style>.cls-1{fill:#fff;}.cls-2{fill:url(#radial-gradient);}.cls-3{fill:url(#radial-gradient-3);}.cls-4{fill:url(#radial-gradient-2);}</style><radialGradient id="radial-gradient" cx="40.55" cy="320.51" fx="40.55" fy="320.51" r="93.87" gradientTransform="translate(281.27 -144.88) rotate(58.28)" gradientUnits="userSpaceOnUse"><stop offset="0" stop-color="#ffd678"/><stop offset=".25" stop-color="#f2a555"/><stop offset=".38" stop-color="#eb5e3e"/><stop offset=".7" stop-color="#c33187"/><stop offset=".95" stop-color="#6765ac"/><stop offset=".99" stop-color="#5c6cb1"/></radialGradient><radialGradient id="radial-gradient-2" cx="40.55" cy="320.51" fx="40.55" fy="320.51" r="93.87" gradientTransform="translate(0 -228)" xlink:href="#radial-gradient"/><radialGradient id="radial-gradient-3" cx="40.55" cy="320.51" fx="40.55" fy="320.51" gradientTransform="translate(0 -228)" xlink:href="#radial-gradient"/></defs><g id="instagram"><circle class="cls-1" cx="66.08" cy="66.08" r="55.51"/><circle class="cls-2" cx="66.09" cy="65.8" r="14.2" transform="translate(-24.63 87.43) rotate(-58.28)"/><path class="cls-4" d="M82.54,31.69h-32.92c-4.48,0-8.7,1.76-11.9,4.96-3.2,3.2-4.95,7.42-4.95,11.9v35.08c0,4.48,1.76,8.7,4.95,11.9,3.2,3.2,7.42,4.96,11.9,4.96h32.92c4.48,0,8.7-1.76,11.9-4.96,3.2-3.2,4.96-7.42,4.96-11.9v-35.08c0-4.48-1.76-8.7-4.96-11.9-3.2-3.2-7.42-4.96-11.9-4.96ZM66.2,87.45c-11.97,0-21.68-9.71-21.68-21.68s9.71-21.68,21.68-21.68,21.68,9.71,21.68,21.68-9.71,21.68-21.68,21.68ZM88.23,48.89c-2.83,0-5.13-2.3-5.13-5.13s2.3-5.13,5.13-5.13,5.13,2.3,5.13,5.13-2.3,5.13-5.13,5.13Z"/><path class="cls-3" d="M66.08,0C29.58,0,0,29.59,0,66.08s29.59,66.08,66.08,66.08,66.08-29.59,66.08-66.08S102.57,0,66.08,0h0ZM105.44,83.62c0,12.6-10.31,22.9-22.9,22.9h-32.92c-12.6,0-22.9-10.31-22.9-22.9v-35.08c0-12.6,10.31-22.9,22.9-22.9h32.92c12.6,0,22.9,10.31,22.9,22.9v35.08h0Z"/></g></svg>