<?xml version="1.0" encoding="UTF-8"?><svg id="Layer_2" xmlns="http://www.w3.org/2000/svg" viewBox="0 0 132.16 132.16"><defs><style>.cls-1{fill:#fff;}.cls-2{fill:#0678b6;}</style></defs><g id="linkedin"><circle class="cls-1" cx="66.08" cy="66.08" r="55.51"/><path class="cls-2" d="M66.08,0C29.58,0,0,29.59,0,66.08s29.59,66.08,66.08,66.08,66.08-29.59,66.08-66.08S102.57,0,66.08,0h0ZM46.37,101.7h-14.79v-47.59h14.79v47.59ZM38.98,47.61c-4.74,0-8.58-3.84-8.58-8.58s3.84-8.57,8.58-8.57,8.57,3.84,8.57,8.57-3.84,8.58-8.57,8.58ZM101.77,101.7h-14.78v-23.14c0-5.52-.1-12.62-7.69-12.62s-8.88,6.01-8.88,12.22v23.54h-14.78v-47.59h14.19v6.5h.2c1.97-3.74,6.8-7.69,13.99-7.69,14.98,0,17.74,9.86,17.74,22.67v26.1h.01Z"/></g></svg>