<?xml version="1.0" encoding="UTF-8"?>
<svg id="Layer_2" xmlns="http://www.w3.org/2000/svg" version="1.1" viewBox="0 0 174.84 132">
  <!-- Generator: Adobe Illustrator 29.8.2, SVG Export Plug-In . SVG Version: 2.1.1 Build 3)  -->
  <defs>
    <style>
      .st0 {
        fill: #ea4335;
      }

      .st1 {
        display: none;
        fill: #fff;
        isolation: isolate;
        opacity: .15;
      }

      .st2 {
        fill: #fbbc04;
      }

      .st3 {
        fill: #4285f4;
      }

      .st4 {
        fill: #34a853;
      }

      .st5 {
        fill: #c5221f;
      }
    </style>
  </defs>
  <g id="Layer_4">
    <rect class="st1" x="10.48" width="156.92" height="132" rx="11.47" ry="11.47"/>
    <path class="st3" d="M39.32,131.95H9.19s-8.58-.86-9.19-10.41V34.67l39.26,27.95.07,69.33h0Z"/>
    <path class="st5" d="M39.26,11.84v50.78L0,34.68v-17.77S4.78-8.45,26.83,3.07l12.43,8.78h0Z"/>
    <path class="st4" d="M174.84,34.62v86.86c-.61,9.56-9.19,10.41-9.19,10.41h-30.14v-67.79l39.32-29.48h.01Z"/>
    <polygon class="st0" points="135.51 11.83 135.51 64.1 87.38 99.71 39.32 62.67 39.32 11.89 39.26 11.84 39.26 11.83 87.94 48.1 135.51 11.83"/>
    <path class="st2" d="M174.84,16.86v17.76l-39.32,29.48V11.83l12.5-8.82c22.05-11.52,26.83,13.84,26.83,13.84h0Z"/>
  </g>
</svg>