<?xml version="1.0" encoding="UTF-8"?><svg id="Layer_2" xmlns="http://www.w3.org/2000/svg" viewBox="0 0 131.71 107.05"><defs><style>.cls-1{fill:#3ca8e0;}</style></defs><g id="X"><path class="cls-1" d="M131.71,12.66c-4.85,2.15-10.05,3.6-15.52,4.26,5.58-3.34,9.86-8.64,11.88-14.95-5.22,3.1-11.01,5.35-17.16,6.56-4.93-5.25-11.95-8.53-19.72-8.53-14.92,0-27.02,12.1-27.02,27.02,0,2.12.24,4.18.7,6.16-22.46-1.13-42.37-11.89-55.7-28.24-2.33,3.99-3.66,8.63-3.66,13.59,0,9.38,4.77,17.65,12.02,22.49-4.43-.14-8.6-1.36-12.24-3.38v.34c0,13.09,9.32,24.01,21.68,26.5-2.27.62-4.65.95-7.12.95-1.74,0-3.43-.17-5.08-.48,3.44,10.74,13.42,18.55,25.24,18.77-9.25,7.25-20.9,11.57-33.56,11.57-2.18,0-4.33-.13-6.45-.38,11.96,7.67,26.16,12.14,41.42,12.14,49.71,0,76.89-41.18,76.89-76.89,0-1.17-.03-2.34-.08-3.5,5.28-3.81,9.86-8.57,13.48-13.99h0Z"/></g></svg>