<?xml version="1.0" encoding="UTF-8"?>
<svg id="uuid-86082748-ff7f-435b-ad22-3d2fa2e05b5c" xmlns="http://www.w3.org/2000/svg" version="1.1" viewBox="0 0 612 792">
  <!-- Generator: Adobe Illustrator 29.8.2, SVG Export Plug-In . SVG Version: 2.1.1 Build 3)  -->
  <defs>
    <style>
      .st0, .st1 {
        fill: #fff;
      }

      .st2 {
        fill: #231f20;
      }

      .st2, .st1 {
        fill-rule: evenodd;
      }

      .st3 {
        isolation: isolate;
      }
    </style>
  </defs>
  <g>
    <g>
      <path class="st2" d="M96.2,325.03h510.22v410.64c0,25.09-20.27,45.62-45.05,45.62H81.15c-24.78,0-45.04-20.53-45.05-45.62l-.08-380.34,60.18-30.3h0Z"/>
      <path class="st1" d="M551.42,331.35h49.28l-36.27,85.55h-49.28l36.27-85.55h0ZM454.46,331.35h49.28l-36.27,85.55h-49.28l36.27-85.55h0ZM357.5,331.35h49.28l-36.27,85.55h-49.28l36.27-85.55h0ZM260.54,331.35h49.28l-36.27,85.55h-49.28l36.27-85.55h0ZM163.58,331.35h49.28l-36.27,85.55h-49.28l36.27-85.55h0Z"/>
      <path class="st2" d="M96.2,325.03l456.29-228.48-30.58-61.07c-11.27-22.51-38.62-31.84-60.77-20.75L31.73,229.74c-22.15,11.09-31,38.55-19.79,61.09l17,34.19h67.26Z"/>
      <path class="st1" d="M500.45,115.46l44.06-22.06-70.74-60.25-44.06,22.06,70.74,60.25h0ZM413.76,158.87l-70.74-60.25,44.06-22.06,70.74,60.25-44.06,22.06h0ZM327.06,202.28l44.06-22.06-70.74-60.25-44.06,22.06,70.74,60.25h0ZM240.37,245.69l-70.74-60.25,44.06-22.06,70.74,60.25-44.06,22.06h0ZM153.68,289.1l44.06-22.06-70.74-60.25-44.06,22.06,70.74,60.25Z"/>
      <path class="st2" d="M96.68,293.88c17.32,0,31.37,14.05,31.37,31.37s-14.05,31.37-31.37,31.37-31.37-14.05-31.37-31.37,14.05-31.37,31.37-31.37Z"/>
      <path class="st0" d="M96.68,295.3c8.27,0,15.75,3.35,21.17,8.77,5.42,5.42,8.77,12.9,8.77,21.17s-3.35,15.75-8.77,21.17c-5.42,5.42-12.9,8.77-21.17,8.77s-15.75-3.35-21.17-8.77c-5.42-5.42-8.77-12.9-8.77-21.17s3.35-15.75,8.77-21.17c5.42-5.42,12.9-8.77,21.17-8.77h0ZM115.83,306.09c-4.9-4.9-11.67-7.94-19.15-7.94s-14.25,3.03-19.16,7.94c-4.9,4.9-7.93,11.68-7.93,19.16s3.03,14.25,7.93,19.15,11.68,7.94,19.16,7.94,14.25-3.03,19.15-7.94c4.9-4.9,7.94-11.68,7.94-19.15s-3.03-14.25-7.94-19.16Z"/>
    </g>
    <g id="TC">
      <polygon class="st1" points="221.62 462.82 221.62 462.82 224.3 465.5 221.62 468.18 221.62 468.18 218.94 465.5 221.62 462.82"/>
      <polygon class="st1" points="101.83 449.09 112.95 449.09 115.73 451.87 112.95 454.65 101.83 454.65 99.05 451.87 101.83 449.09"/>
      <polygon class="st1" points="101.83 483.6 112.95 483.6 115.73 486.38 112.95 489.16 101.83 489.16 99.05 486.38 101.83 483.6"/>
      <polygon class="st1" points="113.24 466.05 113.24 454.94 116.02 452.16 118.8 454.94 118.8 466.05 116.02 468.83 113.24 466.05"/>
      <polygon class="st1" points="95.98 466.05 95.98 454.94 98.76 452.16 101.54 454.94 101.54 466.05 98.76 468.83 95.98 466.05"/>
      <polygon class="st1" points="95.98 483.31 95.98 472.19 98.76 469.41 101.54 472.19 101.54 483.31 98.76 486.09 95.98 483.31"/>
      <polygon class="st1" points="113.24 483.31 113.24 472.19 116.02 469.41 118.8 472.19 118.8 483.31 116.02 486.09 113.24 483.31"/>
      <polygon class="st1" points="130.35 449.09 141.46 449.09 144.24 451.87 141.46 454.65 130.35 454.65 127.57 451.87 130.35 449.09"/>
      <polygon class="st1" points="130.35 483.6 141.46 483.6 144.24 486.38 141.46 489.16 130.35 489.16 127.57 486.38 130.35 483.6"/>
      <polygon class="st1" points="141.75 466.05 141.75 454.94 144.53 452.16 147.31 454.94 147.31 466.05 144.53 468.83 141.75 466.05"/>
      <polygon class="st1" points="124.5 466.05 124.5 454.94 127.28 452.16 130.06 454.94 130.06 466.05 127.28 468.83 124.5 466.05"/>
      <polygon class="st1" points="124.5 483.31 124.5 472.19 127.28 469.41 130.06 472.19 130.06 483.31 127.28 486.09 124.5 483.31"/>
      <polygon class="st1" points="141.75 483.31 141.75 472.19 144.53 469.41 147.31 472.19 147.31 483.31 144.53 486.09 141.75 483.31"/>
      <polygon class="st1" points="158.86 449.09 169.98 449.09 172.76 451.87 169.98 454.65 158.86 454.65 156.08 451.87 158.86 449.09"/>
      <polygon class="st1" points="158.86 483.6 169.98 483.6 172.76 486.38 169.98 489.16 158.86 489.16 156.08 486.38 158.86 483.6"/>
      <polygon class="st1" points="170.27 466.05 170.27 454.94 173.05 452.16 175.83 454.94 175.83 466.05 173.05 468.83 170.27 466.05"/>
      <polygon class="st1" points="153.02 466.05 153.02 454.94 155.79 452.16 158.57 454.94 158.57 466.05 155.79 468.83 153.02 466.05"/>
      <polygon class="st1" points="153.02 483.31 153.02 472.19 155.79 469.41 158.57 472.19 158.57 483.31 155.79 486.09 153.02 483.31"/>
      <polygon class="st1" points="170.27 483.31 170.27 472.19 173.05 469.41 175.83 472.19 175.83 483.31 173.05 486.09 170.27 483.31"/>
      <polygon class="st1" points="187.38 449.09 198.5 449.09 201.28 451.87 198.5 454.65 187.38 454.65 184.6 451.87 187.38 449.09"/>
      <polygon class="st1" points="187.38 483.6 198.5 483.6 201.28 486.38 198.5 489.16 187.38 489.16 184.6 486.38 187.38 483.6"/>
      <polygon class="st1" points="198.79 466.05 198.79 454.94 201.56 452.16 204.34 454.94 204.34 466.05 201.56 468.83 198.79 466.05"/>
      <polygon class="st1" points="181.53 466.05 181.53 454.94 184.31 452.16 187.09 454.94 187.09 466.05 184.31 468.83 181.53 466.05"/>
      <polygon class="st1" points="181.53 483.31 181.53 472.19 184.31 469.41 187.09 472.19 187.09 483.31 184.31 486.09 181.53 483.31"/>
      <polygon class="st1" points="198.79 483.31 198.79 472.19 201.56 469.41 204.34 472.19 204.34 483.31 201.56 486.09 198.79 483.31"/>
      <polygon class="st1" points="244.41 449.09 255.53 449.09 258.31 451.87 255.53 454.65 244.41 454.65 241.63 451.87 244.41 449.09"/>
      <polygon class="st1" points="244.41 483.6 255.53 483.6 258.31 486.38 255.53 489.16 244.41 489.16 241.63 486.38 244.41 483.6"/>
      <polygon class="st1" points="255.82 466.05 255.82 454.94 258.6 452.16 261.38 454.94 261.38 466.05 258.6 468.83 255.82 466.05"/>
      <polygon class="st1" points="238.56 466.05 238.56 454.94 241.34 452.16 244.12 454.94 244.12 466.05 241.34 468.83 238.56 466.05"/>
      <polygon class="st1" points="238.56 483.31 238.56 472.19 241.34 469.41 244.12 472.19 244.12 483.31 241.34 486.09 238.56 483.31"/>
      <polygon class="st1" points="255.82 483.31 255.82 472.19 258.6 469.41 261.38 472.19 261.38 483.31 258.6 486.09 255.82 483.31"/>
      <polygon class="st1" points="272.93 449.09 284.05 449.09 286.83 451.87 284.05 454.65 272.93 454.65 270.15 451.87 272.93 449.09"/>
      <polygon class="st1" points="272.93 483.6 284.05 483.6 286.83 486.38 284.05 489.16 272.93 489.16 270.15 486.38 272.93 483.6"/>
      <polygon class="st1" points="284.33 466.05 284.33 454.94 287.11 452.16 289.89 454.94 289.89 466.05 287.11 468.83 284.33 466.05"/>
      <polygon class="st1" points="267.08 466.05 267.08 454.94 269.86 452.16 272.64 454.94 272.64 466.05 269.86 468.83 267.08 466.05"/>
      <polygon class="st1" points="267.08 483.31 267.08 472.19 269.86 469.41 272.64 472.19 272.64 483.31 269.86 486.09 267.08 483.31"/>
      <polygon class="st1" points="284.33 483.31 284.33 472.19 287.11 469.41 289.89 472.19 289.89 483.31 287.11 486.09 284.33 483.31"/>
      <polygon class="st1" points="329.96 449.09 341.08 449.09 343.86 451.87 341.08 454.65 329.96 454.65 327.18 451.87 329.96 449.09"/>
      <polygon class="st1" points="329.96 483.6 341.08 483.6 343.86 486.38 341.08 489.16 329.96 489.16 327.18 486.38 329.96 483.6"/>
      <polygon class="st1" points="341.37 466.05 341.37 454.94 344.15 452.16 346.93 454.94 346.93 466.05 344.15 468.83 341.37 466.05"/>
      <polygon class="st1" points="324.11 466.05 324.11 454.94 326.89 452.16 329.67 454.94 329.67 466.05 326.89 468.83 324.11 466.05"/>
      <polygon class="st1" points="324.11 483.31 324.11 472.19 326.89 469.41 329.67 472.19 329.67 483.31 326.89 486.09 324.11 483.31"/>
      <polygon class="st1" points="341.37 483.31 341.37 472.19 344.15 469.41 346.93 472.19 346.93 483.31 344.15 486.09 341.37 483.31"/>
      <polygon class="st1" points="358.48 449.09 369.59 449.09 372.38 451.87 369.59 454.65 358.48 454.65 355.7 451.87 358.48 449.09"/>
      <polygon class="st1" points="358.48 483.6 369.59 483.6 372.38 486.38 369.59 489.16 358.48 489.16 355.7 486.38 358.48 483.6"/>
      <polygon class="st1" points="369.88 466.05 369.88 454.94 372.66 452.16 375.44 454.94 375.44 466.05 372.66 468.83 369.88 466.05"/>
      <polygon class="st1" points="352.63 466.05 352.63 454.94 355.41 452.16 358.19 454.94 358.19 466.05 355.41 468.83 352.63 466.05"/>
      <polygon class="st1" points="352.63 483.31 352.63 472.19 355.41 469.41 358.19 472.19 358.19 483.31 355.41 486.09 352.63 483.31"/>
      <polygon class="st1" points="369.88 483.31 369.88 472.19 372.66 469.41 375.44 472.19 375.44 483.31 372.66 486.09 369.88 483.31"/>
      <polygon class="st1" points="415.51 449.09 426.63 449.09 429.41 451.87 426.63 454.65 415.51 454.65 412.73 451.87 415.51 449.09"/>
      <polygon class="st1" points="415.51 483.6 426.63 483.6 429.41 486.38 426.63 489.16 415.51 489.16 412.73 486.38 415.51 483.6"/>
      <polygon class="st1" points="426.92 466.05 426.92 454.94 429.7 452.16 432.47 454.94 432.47 466.05 429.7 468.83 426.92 466.05"/>
      <polygon class="st1" points="409.66 466.05 409.66 454.94 412.44 452.16 415.22 454.94 415.22 466.05 412.44 468.83 409.66 466.05"/>
      <polygon class="st1" points="409.66 483.31 409.66 472.19 412.44 469.41 415.22 472.19 415.22 483.31 412.44 486.09 409.66 483.31"/>
      <polygon class="st1" points="426.92 483.31 426.92 472.19 429.7 469.41 432.47 472.19 432.47 483.31 429.7 486.09 426.92 483.31"/>
      <polygon class="st1" points="444.03 449.09 455.14 449.09 457.92 451.87 455.14 454.65 444.03 454.65 441.25 451.87 444.03 449.09"/>
      <polygon class="st1" points="444.03 483.6 455.14 483.6 457.92 486.38 455.14 489.16 444.03 489.16 441.25 486.38 444.03 483.6"/>
      <polygon class="st1" points="455.43 466.05 455.43 454.94 458.21 452.16 460.99 454.94 460.99 466.05 458.21 468.83 455.43 466.05"/>
      <polygon class="st1" points="438.18 466.05 438.18 454.94 440.96 452.16 443.74 454.94 443.74 466.05 440.96 468.83 438.18 466.05"/>
      <polygon class="st1" points="438.18 483.31 438.18 472.19 440.96 469.41 443.74 472.19 443.74 483.31 440.96 486.09 438.18 483.31"/>
      <polygon class="st1" points="455.43 483.31 455.43 472.19 458.21 469.41 460.99 472.19 460.99 483.31 458.21 486.09 455.43 483.31"/>
      <polygon class="st1" points="501.06 449.09 512.18 449.09 514.96 451.87 512.18 454.65 501.06 454.65 498.28 451.87 501.06 449.09"/>
      <polygon class="st1" points="501.06 483.6 512.18 483.6 514.96 486.38 512.18 489.16 501.06 489.16 498.28 486.38 501.06 483.6"/>
      <polygon class="st1" points="512.46 466.05 512.46 454.94 515.24 452.16 518.02 454.94 518.02 466.05 515.24 468.83 512.46 466.05"/>
      <polygon class="st1" points="495.21 466.05 495.21 454.94 497.99 452.16 500.77 454.94 500.77 466.05 497.99 468.83 495.21 466.05"/>
      <polygon class="st1" points="495.21 483.31 495.21 472.19 497.99 469.41 500.77 472.19 500.77 483.31 497.99 486.09 495.21 483.31"/>
      <polygon class="st1" points="512.46 483.31 512.46 472.19 515.24 469.41 518.02 472.19 518.02 483.31 515.24 486.09 512.46 483.31"/>
      <polygon class="st1" points="529.57 449.09 540.69 449.09 543.47 451.87 540.69 454.65 529.57 454.65 526.79 451.87 529.57 449.09"/>
      <polygon class="st1" points="529.57 483.6 540.69 483.6 543.47 486.38 540.69 489.16 529.57 489.16 526.79 486.38 529.57 483.6"/>
      <polygon class="st1" points="540.98 466.05 540.98 454.94 543.76 452.16 546.54 454.94 546.54 466.05 543.76 468.83 540.98 466.05"/>
      <polygon class="st1" points="523.73 466.05 523.73 454.94 526.51 452.16 529.29 454.94 529.29 466.05 526.51 468.83 523.73 466.05"/>
      <polygon class="st1" points="523.73 483.31 523.73 472.19 526.51 469.41 529.29 472.19 529.29 483.31 526.51 486.09 523.73 483.31"/>
      <polygon class="st1" points="540.98 483.31 540.98 472.19 543.76 469.41 546.54 472.19 546.54 483.31 543.76 486.09 540.98 483.31"/>
      <polygon class="st1" points="221.62 470.24 221.62 470.24 224.3 472.91 221.62 475.59 221.62 475.59 218.94 472.91 221.62 470.24"/>
      <polygon class="st1" points="307.74 462.82 307.74 462.82 310.42 465.5 307.74 468.18 307.74 468.18 305.06 465.5 307.74 462.82"/>
      <polygon class="st1" points="307.74 470.24 307.74 470.24 310.42 472.91 307.74 475.59 307.74 475.59 305.06 472.91 307.74 470.24"/>
      <polygon class="st1" points="393.29 462.82 393.29 462.82 395.97 465.5 393.29 468.18 393.29 468.18 390.61 465.5 393.29 462.82"/>
      <polygon class="st1" points="393.29 470.24 393.29 470.24 395.97 472.91 393.29 475.59 393.29 475.59 390.61 472.91 393.29 470.24"/>
      <polygon class="st1" points="479.41 462.82 479.41 462.82 482.09 465.5 479.41 468.18 479.41 468.18 476.73 465.5 479.41 462.82"/>
      <polygon class="st1" points="479.41 470.24 479.41 470.24 482.09 472.91 479.41 475.59 479.41 475.59 476.73 472.91 479.41 470.24"/>
      <path class="st0" d="M90.28,442.05h463.39v54.18H88.85v-54.18h1.43ZM550.82,444.9H91.7v48.48h459.11v-48.48h.01Z"/>
    </g>
  </g>
  <g class="st3">
    <path class="st0" d="M374.63,516.6v225h-43.79v-150.6h-.95l-108.05,150.3v-150.3h-.94l-108.36,150.6h-53.24l166.32-225h40v93.3l68.67-93.3h40.32Z"/>
    <path class="st0" d="M380.61,516.6h39.69l166.32,225h-52.92l-42.52-58.2h-66.78v58.2h-43.79v-225ZM463.14,644.7l-38.11-53.7h-.63v53.7h38.75Z"/>
  </g>
</svg>